<svg width="512" height="512" xmlns="http://www.w3.org/2000/svg">

 <g>
  <title>background</title>
  <rect fill="none" id="canvas_background" height="402" width="582" y="-1" x="-1"/>
 </g>
 <g>
  <title>Layer 1</title>
  <ellipse stroke="null" ry="253.02326" rx="252.031017" id="svg_4" cy="257.41086" cx="253.519387" fill-opacity="null" stroke-opacity="null" stroke-width="null" fill="#4A64A4"/>
  <path id="svg_3" fill="#f9fafc" d="m206.9,345c0,-27.5 -0.1,-55 0.1,-82.5c0,-4.8 -1.4,-5.8 -5.9,-5.7c-9.8,0.3 -19.7,0 -29.5,0.1c-2.8,0 -3.8,-0.7 -3.8,-3.6c0.1,-17.3 0.1,-34.7 0,-52c0,-3.1 1,-4.1 4,-4c10.2,0.1 20.3,-0.1 30.5,0.1c3.5,0.1 4.6,-1 4.6,-4.5c-0.2,-15.3 -0.1,-30.7 -0.1,-46c0.1,-36.5 22.3,-57.8 55.3,-64c17.9,-3.4 35.9,-2 53.8,-2.3c9.2,-0.1 18.3,0.1 27.5,-0.1c3.8,-0.1 4.3,1.5 4.3,4.7c-0.1,17.5 -0.1,35 0,52.5c0,3.5 -1,4.6 -4.5,4.5c-12.3,-0.2 -24.7,-0.1 -37,-0.1c-12.6,0 -19.3,6.9 -19.3,19.5c0,10.3 0.1,20.7 -0.1,31c-0.1,3.5 1,4.6 4.5,4.5c17,-0.2 34,0 51,-0.2c4,0 5.1,1 4.8,5.1c-1.5,17.1 -3.6,34.1 -6.2,51.1c-0.5,3 -1.6,3.8 -4.5,3.7c-14.8,-0.1 -29.7,0.1 -44.5,-0.2c-4.2,-0.1 -5.2,1.2 -5.1,5.3c0.1,55.2 0,110.3 0.2,165.5c0,4.2 -0.8,5.7 -5.4,5.6c-23.2,-0.3 -46.3,-0.2 -69.5,0c-4.1,0 -5.3,-1 -5.3,-5.2c0.2,-27.5 0.1,-55.1 0.1,-82.8z"/>
  <path stroke="null" id="svg_2" fill="#4A64A4" d="m253.132545,507.9c-140.204056,0 -253.078481,-113.612473 -252.570496,-254.996884c0.609583,-139.6676 113.991994,-253.078095 255.212021,-251.664251c138.375308,1.413844 250.944941,114.319395 249.725776,255.602817c-1.117569,138.960678 -113.280814,250.654363 -252.367301,251.058318zm0.406389,-486.766329c-126.488442,-0.605933 -231.844679,101.695787 -233.063844,230.860545c-1.320763,131.487502 104.340265,234.698122 230.117527,236.010977c127.809205,1.312855 234.384607,-101.594798 234.99419,-231.466478c0.609583,-130.679591 -103.222696,-235.405044 -232.047873,-235.405044z"/>
 </g>
</svg>